{
  "accessors": [
    {
      "bufferView": 2,
      "componentType": 5126,
      "count": 65532,
      "max": [
        3.6313700675964355,
        3.2620999813079834,
        2.2720301151275635
      ],
      "min": [
        -3.3720300197601318,
        -3.6093699932098389,
        -0.87191998958587646
      ],
      "type": "VEC3"
    },
    {
      "bufferView": 2,
      "byteOffset": 786384,
      "componentType": 5126,
      "count": 65532,
      "max": [
        0.99999624490737915,
        0.99999600648880005,
        0.99990063905715942
      ],
      "min": [
        -0.99994069337844849,
        -0.99995940923690796,
        -0.99998372793197632
      ],
      "type": "VEC3"
    },
    {
      "bufferView": 1,
      "componentType": 5126,
      "count": 65532,
      "max": [
        0,
        0
      ],
      "min": [
        0,
        0
      ],
      "type": "VEC2"
    },
    {
      "bufferView": 0,
      "componentType": 5125,
      "count": 303594,
      "max": [
        65531
      ],
      "min": [
        0
      ],
      "type": "SCALAR"
    },
    {
      "bufferView": 2,
      "byteOffset": 1572768,
      "componentType": 5126,
      "count": 65532,
      "max": [
        3.5846800804138184,
        3.5974400043487549,
        4.4036297798156738
      ],
      "min": [
        -3.658790111541748,
        -3.195120096206665,
        -0.87178999185562134
      ],
      "type": "VEC3"
    },
    {
      "bufferView": 2,
      "byteOffset": 2359152,
      "componentType": 5126,
      "count": 65532,
      "max": [
        0.99988847970962524,
        0.9999316930770874,
        1
      ],
      "min": [
        -0.99999433755874634,
        -0.9998248815536499,
        -0.99998372793197632
      ],
      "type": "VEC3"
    },
    {
      "bufferView": 1,
      "byteOffset": 524256,
      "componentType": 5126,
      "count": 65532,
      "max": [
        0,
        0
      ],
      "min": [
        0,
        0
      ],
      "type": "VEC2"
    },
    {
      "bufferView": 0,
      "byteOffset": 1214376,
      "componentType": 5125,
      "count": 304665,
      "max": [
        65531
      ],
      "min": [
        0
      ],
      "type": "SCALAR"
    },
    {
      "bufferView": 2,
      "byteOffset": 3145536,
      "componentType": 5126,
      "count": 65532,
      "max": [
        3.4299299716949463,
        3.6508700847625732,
        4.6543498039245605
      ],
      "min": [
        -3.5739200115203857,
        -3.4792599678039551,
        -0.87178999185562134
      ],
      "type": "VEC3"
    },
    {
      "bufferView": 2,
      "byteOffset": 3931920,
      "componentType": 5126,
      "count": 65532,
      "max": [
        0.9999498724937439,
        0.99990469217300415,
        0.99999576807022095
      ],
      "min": [
        -0.9998595118522644,
        -0.99998396635055542,
        -0.99998575448989868
      ],
      "type": "VEC3"
    },
    {
      "bufferView": 1,
      "byteOffset": 1048512,
      "componentType": 5126,
      "count": 65532,
      "max": [
        0,
        0
      ],
      "min": [
        0,
        0
      ],
      "type": "VEC2"
    },
    {
      "bufferView": 0,
      "byteOffset": 2433036,
      "componentType": 5125,
      "count": 301536,
      "max": [
        65531
      ],
      "min": [
        0
      ],
      "type": "SCALAR"
    },
    {
      "bufferView": 2,
      "byteOffset": 4718304,
      "componentType": 5126,
      "count": 65532,
      "max": [
        3.6370398998260498,
        3.6526799201965332,
        4.6659698486328125
      ],
      "min": [
        -3.4975199699401855,
        -3.3856201171875,
        -0.87178999185562134
      ],
      "type": "VEC3"
    },
    {
      "bufferView": 2,
      "byteOffset": 5504688,
      "componentType": 5126,
      "count": 65532,
      "max": [
        0.99990552663803101,
        0.99993813037872314,
        1
      ],
      "min": [
        -0.99985355138778687,
        -0.99997669458389282,
        -0.99997884035110474
      ],
      "type": "VEC3"
    },
    {
      "bufferView": 1,
      "byteOffset": 1572768,
      "componentType": 5126,
      "count": 65532,
      "max": [
        0,
        0
      ],
      "min": [
        0,
        0
      ],
      "type": "VEC2"
    },
    {
      "bufferView": 0,
      "byteOffset": 3639180,
      "componentType": 5125,
      "count": 302907,
      "max": [
        65531
      ],
      "min": [
        0
      ],
      "type": "SCALAR"
    },
    {
      "bufferView": 2,
      "byteOffset": 6291072,
      "componentType": 5126,
      "count": 65532,
      "max": [
        3.5636000633239746,
        3.5940999984741211,
        3.9985499382019043
      ],
      "min": [
        -3.5596299171447754,
        -3.6490199565887451,
        -0.87178999185562134
      ],
      "type": "VEC3"
    },
    {
      "bufferView": 2,
      "byteOffset": 7077456,
      "componentType": 5126,
      "count": 65532,
      "max": [
        0.99995630979537964,
        0.99995750188827515,
        0.99999576807022095
      ],
      "min": [
        -0.99999946355819702,
        -0.99999457597732544,
        -0.99999731779098511
      ],
      "type": "VEC3"
    },
    {
      "bufferView": 1,
      "byteOffset": 2097024,
      "componentType": 5126,
      "count": 65532,
      "max": [
        0,
        0
      ],
      "min": [
        0,
        0
      ],
      "type": "VEC2"
    },
    {
      "bufferView": 0,
      "byteOffset": 4850808,
      "componentType": 5125,
      "count": 301419,
      "max": [
        65531
      ],
      "min": [
        0
      ],
      "type": "SCALAR"
    },
    {
      "bufferView": 2,
      "byteOffset": 7863840,
      "componentType": 5126,
      "count": 65532,
      "max": [
        3.5826900005340576,
        3.4698200225830078,
        4.3779702186584473
      ],
      "min": [
        -3.5280001163482666,
        -3.5185799598693848,
        -0.87191998958587646
      ],
      "type": "VEC3"
    },
    {
      "bufferView": 2,
      "byteOffset": 8650224,
      "componentType": 5126,
      "count": 65532,
      "max": [
        0.99992132186889648,
        0.99996250867843628,
        1
      ],
      "min": [
        -0.99991154670715332,
        -0.99998003244400024,
        -0.99997884035110474
      ],
      "type": "VEC3"
    },
    {
      "bufferView": 1,
      "byteOffset": 2621280,
      "componentType": 5126,
      "count": 65532,
      "max": [
        0,
        0
      ],
      "min": [
        0,
        0
      ],
      "type": "VEC2"
    },
    {
      "bufferView": 0,
      "byteOffset": 6056484,
      "componentType": 5125,
      "count": 300858,
      "max": [
        65531
      ],
      "min": [
        0
      ],
      "type": "SCALAR"
    },
    {
      "bufferView": 2,
      "byteOffset": 9436608,
      "componentType": 5126,
      "count": 65532,
      "max": [
        3.5589599609375,
        3.4378600120544434,
        4.7399101257324219
      ],
      "min": [
        -3.658790111541748,
        -3.5258700847625732,
        -0.87191998958587646
      ],
      "type": "VEC3"
    },
    {
      "bufferView": 2,
      "byteOffset": 10222992,
      "componentType": 5126,
      "count": 65532,
      "max": [
        0.99992430210113525,
        0.99997740983963013,
        0.99998074769973755
      ],
      "min": [
        -0.99990493059158325,
        -0.9999883770942688,
        -1
      ],
      "type": "VEC3"
    },
    {
      "bufferView": 1,
      "byteOffset": 3145536,
      "componentType": 5126,
      "count": 65532,
      "max": [
        0,
        0
      ],
      "min": [
        0,
        0
      ],
      "type": "VEC2"
    },
    {
      "bufferView": 0,
      "byteOffset": 7259916,
      "componentType": 5125,
      "count": 295824,
      "max": [
        65531
      ],
      "min": [
        0
      ],
      "type": "SCALAR"
    },
    {
      "bufferView": 2,
      "byteOffset": 11009376,
      "componentType": 5126,
      "count": 65534,
      "max": [
        3.5539700984954834,
        3.645859956741333,
        4.6543498039245605
      ],
      "min": [
        -3.4756999015808105,
        -3.5326499938964844,
        -0.87178999185562134
      ],
      "type": "VEC3"
    },
    {
      "bufferView": 2,
      "byteOffset": 11795784,
      "componentType": 5126,
      "count": 65534,
      "max": [
        0.99998360872268677,
        0.99993526935577393,
        1
      ],
      "min": [
        -0.99994069337844849,
        -0.99996775388717651,
        -0.99999731779098511
      ],
      "type": "VEC3"
    },
    {
      "bufferView": 1,
      "byteOffset": 3669792,
      "componentType": 5126,
      "count": 65534,
      "max": [
        0,
        0
      ],
      "min": [
        0,
        0
      ],
      "type": "VEC2"
    },
    {
      "bufferView": 0,
      "byteOffset": 8443212,
      "componentType": 5125,
      "count": 275553,
      "max": [
        65533
      ],
      "min": [
        0
      ],
      "type": "SCALAR"
    },
    {
      "bufferView": 2,
      "byteOffset": 12582192,
      "componentType": 5126,
      "count": 65532,
      "max": [
        3.6370398998260498,
        3.6385800838470459,
        4.7389101982116699
      ],
      "min": [
        -3.6376500129699707,
        -3.6490199565887451,
        -0.87191998958587646
      ],
      "type": "VEC3"
    },
    {
      "bufferView": 2,
      "byteOffset": 13368576,
      "componentType": 5126,
      "count": 65532,
      "max": [
        0.99992430210113525,
        0.99999600648880005,
        0.99999433755874634
      ],
      "min": [
        -0.99999946355819702,
        -0.99995559453964233,
        -0.99997872114181519
      ],
      "type": "VEC3"
    },
    {
      "bufferView": 1,
      "byteOffset": 4194064,
      "componentType": 5126,
      "count": 65532,
      "max": [
        0,
        0
      ],
      "min": [
        0,
        0
      ],
      "type": "VEC2"
    },
    {
      "bufferView": 0,
      "byteOffset": 9545424,
      "componentType": 5125,
      "count": 229467,
      "max": [
        65531
      ],
      "min": [
        0
      ],
      "type": "SCALAR"
    },
    {
      "bufferView": 2,
      "byteOffset": 14154960,
      "componentType": 5126,
      "count": 65533,
      "max": [
        3.6286299228668213,
        3.6497399806976318,
        4.6807198524475098
      ],
      "min": [
        -3.6445000171661377,
        -3.6199400424957275,
        -0.87178999185562134
      ],
      "type": "VEC3"
    },
    {
      "bufferView": 2,
      "byteOffset": 14941356,
      "componentType": 5126,
      "count": 65533,
      "max": [
        0.99991381168365479,
        0.99990350008010864,
        1
      ],
      "min": [
        -0.99992358684539795,
        -0.99995893239974976,
        -1
      ],
      "type": "VEC3"
    },
    {
      "bufferView": 1,
      "byteOffset": 4718320,
      "componentType": 5126,
      "count": 65533,
      "max": [
        0,
        0
      ],
      "min": [
        0,
        0
      ],
      "type": "VEC2"
    },
    {
      "bufferView": 0,
      "byteOffset": 10463292,
      "componentType": 5125,
      "count": 150588,
      "max": [
        65532
      ],
      "min": [
        0
      ],
      "type": "SCALAR"
    },
    {
      "bufferView": 2,
      "byteOffset": 15727752,
      "componentType": 5126,
      "count": 26881,
      "max": [
        3.626539945602417,
        3.5875399112701416,
        4.738379955291748
      ],
      "min": [
        -3.6422200202941895,
        -3.644629955291748,
        -0.87191998958587646
      ],
      "type": "VEC3"
    },
    {
      "bufferView": 2,
      "byteOffset": 16050324,
      "componentType": 5126,
      "count": 26881,
      "max": [
        0.99953955411911011,
        0.99995750188827515,
        0.99998050928115845
      ],
      "min": [
        -0.99988359212875366,
        -0.99980753660202026,
        -0.9999815821647644
      ],
      "type": "VEC3"
    },
    {
      "bufferView": 1,
      "byteOffset": 5242584,
      "componentType": 5126,
      "count": 26881,
      "max": [
        0,
        0
      ],
      "min": [
        0,
        0
      ],
      "type": "VEC2"
    },
    {
      "bufferView": 0,
      "byteOffset": 11065644,
      "componentType": 5125,
      "count": 40932,
      "max": [
        26880
      ],
      "min": [
        0
      ],
      "type": "SCALAR"
    }
  ],
  "asset": {
    "extras": {
      "author": "Gregory Allen Brown (https://sketchfab.com/gregoryallenbrown)",
      "license": "CC-BY-NC-4.0 (http://creativecommons.org/licenses/by-nc/4.0/)",
      "source": "https://sketchfab.com/models/9361ab369aea47c8b44758df06f8a6cd",
      "title": "Easter or Ostara Basket"
    },
    "generator": "Sketchfab-3.20.7",
    "version": "2.0"
  },
  "bufferViews": [
    {
      "buffer": 0,
      "byteLength": 11229372,
      "byteOffset": 0,
      "name": "floatBufferViews",
      "target": 34963
    },
    {
      "buffer": 0,
      "byteLength": 5457632,
      "byteOffset": 11229372,
      "byteStride": 8,
      "name": "floatBufferViews",
      "target": 34962
    },
    {
      "buffer": 0,
      "byteLength": 16372896,
      "byteOffset": 16687004,
      "byteStride": 12,
      "name": "floatBufferViews",
      "target": 34962
    }
  ],
  "buffers": [
    {
      "byteLength": 33059900,
      "uri": "scene.bin"
    }
  ],
  "images": [
    {
      "uri": "textures/Material_baseColor.jpg"
    }
  ],
  "materials": [
    {
      "doubleSided": true,
      "name": "Material",
      "pbrMetallicRoughness": {
        "baseColorFactor": [
          1,
          1,
          1,
          1
        ],
        "baseColorTexture": {
          "index": 0,
          "texCoord": 0
        },
        "metallicFactor": 0,
        "roughnessFactor": 0.37976371949999999
      }
    }
  ],
  "meshes": [
    {
      "name": "BezierCurve.001_0",
      "primitives": [
        {
          "attributes": {
            "NORMAL": 1,
            "POSITION": 0,
            "TEXCOORD_0": 2
          },
          "indices": 3,
          "material": 0,
          "mode": 4
        }
      ]
    },
    {
      "name": "BezierCurve.001_0",
      "primitives": [
        {
          "attributes": {
            "NORMAL": 5,
            "POSITION": 4,
            "TEXCOORD_0": 6
          },
          "indices": 7,
          "material": 0,
          "mode": 4
        }
      ]
    },
    {
      "name": "BezierCurve.001_0",
      "primitives": [
        {
          "attributes": {
            "NORMAL": 9,
            "POSITION": 8,
            "TEXCOORD_0": 10
          },
          "indices": 11,
          "material": 0,
          "mode": 4
        }
      ]
    },
    {
      "name": "BezierCurve.001_0",
      "primitives": [
        {
          "attributes": {
            "NORMAL": 13,
            "POSITION": 12,
            "TEXCOORD_0": 14
          },
          "indices": 15,
          "material": 0,
          "mode": 4
        }
      ]
    },
    {
      "name": "BezierCurve.001_0",
      "primitives": [
        {
          "attributes": {
            "NORMAL": 17,
            "POSITION": 16,
            "TEXCOORD_0": 18
          },
          "indices": 19,
          "material": 0,
          "mode": 4
        }
      ]
    },
    {
      "name": "BezierCurve.001_0",
      "primitives": [
        {
          "attributes": {
            "NORMAL": 21,
            "POSITION": 20,
            "TEXCOORD_0": 22
          },
          "indices": 23,
          "material": 0,
          "mode": 4
        }
      ]
    },
    {
      "name": "BezierCurve.001_0",
      "primitives": [
        {
          "attributes": {
            "NORMAL": 25,
            "POSITION": 24,
            "TEXCOORD_0": 26
          },
          "indices": 27,
          "material": 0,
          "mode": 4
        }
      ]
    },
    {
      "name": "BezierCurve.001_0",
      "primitives": [
        {
          "attributes": {
            "NORMAL": 29,
            "POSITION": 28,
            "TEXCOORD_0": 30
          },
          "indices": 31,
          "material": 0,
          "mode": 4
        }
      ]
    },
    {
      "name": "BezierCurve.001_0",
      "primitives": [
        {
          "attributes": {
            "NORMAL": 33,
            "POSITION": 32,
            "TEXCOORD_0": 34
          },
          "indices": 35,
          "material": 0,
          "mode": 4
        }
      ]
    },
    {
      "name": "BezierCurve.001_0",
      "primitives": [
        {
          "attributes": {
            "NORMAL": 37,
            "POSITION": 36,
            "TEXCOORD_0": 38
          },
          "indices": 39,
          "material": 0,
          "mode": 4
        }
      ]
    },
    {
      "name": "BezierCurve.001_0",
      "primitives": [
        {
          "attributes": {
            "NORMAL": 41,
            "POSITION": 40,
            "TEXCOORD_0": 42
          },
          "indices": 43,
          "material": 0,
          "mode": 4
        }
      ]
    }
  ],
  "nodes": [
    {
      "children": [
        1
      ],
      "name": "RootNode (gltf orientation matrix)",
      "rotation": [
        -0.70710678118654746,
        -0,
        -0,
        0.70710678118654757
      ]
    },
    {
      "children": [
        2
      ],
      "matrix": [
        1,
        0,
        0,
        0,
        0,
        0.99998742341995239,
        0.0050188712775707245,
        0,
        0,
        -0.0050188712775707245,
        0.99998742341995239,
        0,
        0.0047832378186285496,
        0.016121787950396538,
        2.039319952018559e-05,
        1
      ],
      "name": "RootNode (model correction matrix)"
    },
    {
      "children": [
        3,
        5
      ],
      "name": "Root"
    },
    {
      "children": [
        4
      ],
      "matrix": [
        -0.29086000000000006,
        0.95517000000000007,
        -0.05519000000000001,
        0,
        -0.77110000000000001,
        -0.19988000000000003,
        0.60452000000000006,
        0,
        0.56639000000000006,
        0.21839000000000003,
        0.7946700000000001,
        0,
        4.8896700000000006,
        1.00545,
        5.9038600000000008,
        1
      ],
      "name": "Lamp"
    },
    {
      "name": "Lamp"
    },
    {
      "children": [
        6,
        7,
        8,
        9,
        10,
        11,
        12,
        13,
        14,
        15,
        16
      ],
      "matrix": [
        1.15784,
        -0.050550000000000012,
        0,
        0,
        0.035160000000000004,
        0.80530000000000002,
        0,
        0,
        0,
        0,
        0.93957999999999997,
        0,
        0.23709000000000002,
        0,
        0,
        1
      ],
      "name": "BezierCurve.001"
    },
    {
      "mesh": 0,
      "name": "BezierCurve.001_0"
    },
    {
      "mesh": 1,
      "name": "BezierCurve.001_0"
    },
    {
      "mesh": 2,
      "name": "BezierCurve.001_0"
    },
    {
      "mesh": 3,
      "name": "BezierCurve.001_0"
    },
    {
      "mesh": 4,
      "name": "BezierCurve.001_0"
    },
    {
      "mesh": 5,
      "name": "BezierCurve.001_0"
    },
    {
      "mesh": 6,
      "name": "BezierCurve.001_0"
    },
    {
      "mesh": 7,
      "name": "BezierCurve.001_0"
    },
    {
      "mesh": 8,
      "name": "BezierCurve.001_0"
    },
    {
      "mesh": 9,
      "name": "BezierCurve.001_0"
    },
    {
      "mesh": 10,
      "name": "BezierCurve.001_0"
    }
  ],
  "samplers": [
    {
      "magFilter": 9729,
      "minFilter": 9987,
      "wrapS": 10497,
      "wrapT": 10497
    }
  ],
  "scene": 0,
  "scenes": [
    {
      "name": "OSG_Scene",
      "nodes": [
        0
      ]
    }
  ],
  "textures": [
    {
      "sampler": 0,
      "source": 0
    }
  ]
}

